<?xml version="1.0"?>
<svg xmlns="http://www.w3.org/2000/svg" width="512" height="512" viewBox="0 0 128 128"><path d="M105.686,42.2a10.341,10.341,0,0,1,3.039,2.229,1.75,1.75,0,0,0,3.025-1.2V31.2a1.751,1.751,0,0,0-1.041-1.6,23.875,23.875,0,0,0-13.626-1.674V18a1.75,1.75,0,0,0-1.75-1.75H84.622A1.751,1.751,0,0,0,82.872,18V33.348A67.035,67.035,0,0,1,71.105,38.3V18a1.75,1.75,0,0,0-1.75-1.75H58.645A1.75,1.75,0,0,0,56.9,18V38.3a66.873,66.873,0,0,1-11.767-4.953V18a1.751,1.751,0,0,0-1.75-1.75H32.667A1.75,1.75,0,0,0,30.917,18v9.926A23.867,23.867,0,0,0,17.291,29.6a1.751,1.751,0,0,0-1.041,1.6V43.22a1.75,1.75,0,0,0,3.01,1.214A10.6,10.6,0,0,1,22.321,42.2a11.965,11.965,0,0,1,8.6-.354v9.815A23.964,23.964,0,0,0,17.291,53.32a1.75,1.75,0,0,0-1.041,1.6V66.95a1.751,1.751,0,0,0,3.018,1.207,10.422,10.422,0,0,1,3.05-2.24,12.017,12.017,0,0,1,8.6-.368v9.817A23.867,23.867,0,0,0,17.291,77.04a1.751,1.751,0,0,0-1.041,1.6V90.67a1.75,1.75,0,0,0,3.01,1.214,10.8,10.8,0,0,1,3.058-2.247,11.984,11.984,0,0,1,8.6-.35V110a1.75,1.75,0,0,0,1.75,1.75H43.378a1.751,1.751,0,0,0,1.75-1.75V95.819A55.574,55.574,0,0,0,56.9,99.664V110a1.75,1.75,0,0,0,1.75,1.75h10.71a1.75,1.75,0,0,0,1.75-1.75V99.665a55.571,55.571,0,0,0,11.767-3.843V110a1.751,1.751,0,0,0,1.75,1.75H95.333a1.75,1.75,0,0,0,1.75-1.75V89.287a11.975,11.975,0,0,1,8.594.348,10.729,10.729,0,0,1,3.055,2.241,1.75,1.75,0,0,0,3.018-1.206V78.64a1.751,1.751,0,0,0-1.041-1.6,23.865,23.865,0,0,0-13.626-1.673V65.548a12,12,0,0,1,8.594.367,10.752,10.752,0,0,1,3.055,2.241,1.75,1.75,0,0,0,3.018-1.206V54.92a1.75,1.75,0,0,0-1.041-1.6,23.954,23.954,0,0,0-13.626-1.662V41.842A11.968,11.968,0,0,1,105.686,42.2ZM93.583,19.75V28.7a39.439,39.439,0,0,0-7.211,2.856V19.75ZM87.461,34.921a35.108,35.108,0,0,1,8.184-3.142c.051-.009.1-.024.151-.038a21.2,21.2,0,0,1,12.454.633V39.6c-.329-.2-.679-.384-1.049-.561-4.639-2.239-10.255-1.67-16.692,1.7-6.473,3.386-12.844,6.515-19.4,7.911V41.911C76.391,40.565,81.665,37.95,87.461,34.921ZM56.9,85.749A68,68,0,0,1,45.128,80.79V72.112A54.564,54.564,0,0,0,56.9,75.971Zm0-33.534v9.816a67.517,67.517,0,0,1-11.767-4.964v-8.7A55.691,55.691,0,0,0,56.9,52.215ZM45.128,68.258V60.993A56.814,56.814,0,0,0,58.16,65.94a1.758,1.758,0,0,0,.22.05,26.194,26.194,0,0,0,11.24,0,1.758,1.758,0,0,0,.22-.05,56.814,56.814,0,0,0,13.032-4.947v7.265C75.442,71.679,69.735,73.17,64,73.17S52.561,71.681,45.128,68.258ZM71.105,75.97a54.689,54.689,0,0,0,11.767-3.856v8.678A66.77,66.77,0,0,1,71.105,85.75Zm11.767-18.9a67.517,67.517,0,0,1-11.767,4.964V52.215a55.571,55.571,0,0,0,11.767-3.843ZM67.605,19.75V62.793a21.32,21.32,0,0,1-7.21,0V19.75Zm-33.188,0h7.211v11.8A39.518,39.518,0,0,0,34.417,28.7ZM20.806,39.041c-.359.171-.711.36-1.056.564V32.374a21.2,21.2,0,0,1,12.456-.632c.049.013.1.028.148.037a35.138,35.138,0,0,1,8.186,3.142c5.794,3.029,11.066,5.643,16.355,6.99V48.65c-6.549-1.4-12.924-4.525-19.4-7.911C31.054,37.374,25.437,36.8,20.806,39.041Zm0,23.72q-.538.258-1.055.564V56.094a20.9,20.9,0,0,1,11.167-.881v6.732A14.986,14.986,0,0,0,20.805,62.761ZM34.417,43.144c.479.22.959.439,1.453.7,1.923,1,3.839,1.987,5.758,2.916V78.994a39.518,39.518,0,0,0-7.211-2.857Zm7.211,65.106H34.417V90.592c.479.221.959.44,1.453.7,1.923,1.005,3.839,1.987,5.758,2.916ZM37.493,88.19c-6.422-3.367-12.038-3.941-16.7-1.7q-.534.26-1.047.565V79.813a21.21,21.21,0,0,1,12.457-.631c.048.013.1.028.146.037a35.154,35.154,0,0,1,8.185,3.141c5.579,2.922,11.034,5.636,16.357,7V96.1C50.346,94.7,43.971,91.575,37.493,88.19Zm22.9,20.06V76.481a36.1,36.1,0,0,0,3.6.189c1.226,0,2.426-.071,3.605-.189V108.25Zm33.188,0H86.372V94.21c1.92-.93,3.837-1.913,5.761-2.92.493-.259.971-.477,1.45-.7ZM108.25,79.813v7.238c-.331-.2-.681-.388-1.052-.568-4.652-2.236-10.268-1.662-16.689,1.706-6.473,3.386-12.842,6.515-19.4,7.911V89.359c5.323-1.363,10.778-4.077,16.356-7a35.083,35.083,0,0,1,8.187-3.142c.049-.009.1-.024.143-.037A21.216,21.216,0,0,1,108.25,79.813Zm0-23.719v7.237c-.33-.2-.681-.389-1.052-.568a14.983,14.983,0,0,0-10.115-.818V55.213A20.9,20.9,0,0,1,108.25,56.094ZM93.583,76.138a39.511,39.511,0,0,0-7.211,2.856V46.76c1.919-.93,3.835-1.913,5.758-2.919.494-.258.974-.477,1.453-.7Z"/></svg>
