<?xml version="1.0" encoding="iso-8859-1"?>
<!-- Generator: Adobe Illustrator 19.0.0, SVG Export Plug-In . SVG Version: 6.00 Build 0)  -->
<svg version="1.1" id="Layer_1" xmlns="http://www.w3.org/2000/svg" xmlns:xlink="http://www.w3.org/1999/xlink" x="0px" y="0px"
	 viewBox="0 0 512.001 512.001" style="enable-background:new 0 0 512.001 512.001;" xml:space="preserve">
<g>
	<g>
		<g>
			<path d="M362.578,0H247.325h-97.903c-12.683,0-23.001,10.319-23.001,23.001v30.363c0,0.066,0.009,0.13,0.01,0.195
				c0.002,0.069-0.003,0.138,0,0.207l22.307,450.507c0.215,4.328,3.786,7.728,8.12,7.728h78.075c4.29,0,7.843-3.334,8.114-7.616
				l12.953-204.61l12.953,204.61c0.271,4.282,3.823,7.616,8.114,7.616h78.075c4.334,0,7.906-3.399,8.12-7.728l11.995-242.249
				c0.221-4.486-3.234-8.3-7.718-8.522c-4.507-0.207-8.299,3.235-8.522,7.718l-11.612,234.522h-62.707l-20.569-324.906v-21.966
				l24.631-12.552c2.724-1.389,4.439-4.186,4.439-7.244V61.494h11.021c0.511,9.57,3.303,25.834,15.299,39.136
				c10.801,11.976,26.4,18.777,46.446,20.276l-5.548,112.041c-0.221,4.486,3.234,8.3,7.718,8.522c4.507,0.203,8.3-3.234,8.522-7.718
				l5.863-118.412c0.205-0.713,0.321-1.464,0.321-2.244c0-0.499-0.052-0.984-0.138-1.458l2.866-57.869
				c0.003-0.069-0.002-0.138,0-0.207c0.001-0.066,0.01-0.129,0.01-0.195V23.001h0.002C385.58,10.319,375.262,0,362.578,0z
				 M199.069,16.26h40.128v28.974h-40.128V16.26z M142.681,23.001c0-3.717,3.024-6.741,6.741-6.741h33.386v28.974h-40.128V23.001z
				 M143.094,61.494h49.396c-0.503,7.198-2.708,19.046-11.175,28.36c-7.995,8.794-20.114,13.784-36.08,14.879L143.094,61.494z
				 M247.871,170.832L227.303,495.74h-62.707l-18.557-374.778c20.527-1.345,36.476-8.157,47.454-20.333
				c11.994-13.301,14.787-29.565,15.297-39.136h38.535h0.545V170.832z M276.94,124.091l-12.809,6.528V61.494h12.809V124.091z
				 M312.933,45.234h-57.477V16.26h57.477V45.234z M366.77,104.647c-15.464-1.234-27.249-6.187-35.074-14.794
				c-8.466-9.313-10.673-21.161-11.176-28.359h48.387L366.77,104.647z M369.32,45.234h-40.128V16.26h33.386
				c3.717,0,6.741,3.024,6.741,6.741V45.234z"/>
			<path d="M270.463,38.874c2.137,0,4.228-0.867,5.746-2.374c1.516-1.516,2.384-3.609,2.384-5.756c0-2.135-0.867-4.238-2.384-5.745
				c-1.518-1.518-3.61-2.385-5.746-2.385c-2.145,0-4.238,0.867-5.756,2.385c-1.507,1.507-2.374,3.61-2.374,5.745
				c0,2.146,0.868,4.238,2.374,5.756C266.225,38.008,268.317,38.874,270.463,38.874z"/>
		</g>
	</g>
</g>
<g>
</g>
<g>
</g>
<g>
</g>
<g>
</g>
<g>
</g>
<g>
</g>
<g>
</g>
<g>
</g>
<g>
</g>
<g>
</g>
<g>
</g>
<g>
</g>
<g>
</g>
<g>
</g>
<g>
</g>
</svg>
